<?xml version="1.0" encoding="UTF-8"?>
<!-- Generator: Adobe Illustrator 27.9.4, SVG Export Plug-In . SVG Version: 9.03 Build 54784)  -->
<svg version="1.1" xmlns="http://www.w3.org/2000/svg" xmlns:xlink="http://www.w3.org/1999/xlink" x="0px" y="0px" viewBox="0 0 396.4 127.1" style="enable-background:new 0 0 396.4 127.1;" xml:space="preserve">
<style type="text/css">
	.st0{fill:#FF0003;}
	.st1{fill:#231F20;}
	.st2{fill:#00B737;}
	.st3{fill:#00A6E2;}
	.st4{fill:#FF8700;}
	.st5{fill:#FD0006;}
</style>
<g id="Capa_1">
	<g>
		<polygon class="st0" points="34.8,78.2 27.3,97.5 26.9,97.5 19.4,78.2 8.5,78.2 8.5,112.2 17.1,112.2 17.1,92.4 17.3,92.4     24.5,111.9 29.7,111.9 36.9,92.5 37.2,92.5 37.2,112.2 45.7,112.2 45.7,78.2   "/>
		<polygon class="st0" points="49.5,78.2 60.5,78.2 68,97.5 68.3,97.5 75.9,78.2 86.8,78.2 86.8,112.2 78.2,112.2 78.2,92.5     77.9,92.5 70.7,111.9 65.6,111.9 58.4,92.4 58.1,92.4 58.1,112.2 49.5,112.2   "/>
		<polygon class="st0" points="19.5,12 8.5,74.5 34.3,74.5 39.3,45.6 41.5,53.6 38.2,74.5 42.7,74.5 44.5,64.3 47.4,74.5 75.3,74.5     83.4,45.6 84.8,53.7 79.3,74.5 83.8,74.5 86.7,64.3 88.5,74.5 114.2,74.5 103.2,12 72,12 65.8,36.5 60.7,16.4 56,16.4 63.4,45.9     61.4,53.8 51,12   "/>
		<polygon class="st0" points="123,74.5 118,74.5 108,16.4 112.8,16.4   "/>
		<path class="st0" d="M124.3,92.9l0-0.2h-17.7v7h8.4c-1.6,3-4.6,4.9-7.9,4.9c-4.6,0-7.9-3.9-7.9-9.4c0-5.5,3.2-9.4,7.9-9.4    c2.7,0,5.2,1.2,6.9,3.4l0.1,0.1h9.4l-0.1-0.2c-2.5-7.1-9-11.9-16.2-11.9c-9.6,0-17.5,8.1-17.5,18.1c0,10,7.8,18.1,17.5,18.1    c9.5,0,17.3-8.1,17.3-18.1C124.5,94.5,124.4,93.7,124.3,92.9"/>
	</g>
	<rect x="159.2" y="2.5" class="st1" width="1.2" height="119.3"/>
	<g>
		<g>
			<path class="st0" d="M265.1,2.5c-3.2,0-6.4,1-9.4,2.9c-3,1.9-5.8,4.7-8.4,8.2c-0.3,0.4-0.6,0.8-0.9,1.2c-0.2,0.4-0.5,0.8-0.7,1.1     c-2,3-3.8,6.4-5.5,10.2c-0.4,1-0.9,2-1.3,3.1c-0.4,1-0.8,2.1-1.2,3.1c-0.4,1-0.7,2.1-1.1,3.2c-0.7,2-1.3,4.1-1.9,6.3     c-0.9,3.3-1.7,6.7-2.4,10.3c-0.7,3.5-1.3,7-1.8,10.7h6.2c0.5-2.1,1.4-5,2-7c2.2-6.8,4.8-12.7,7.7-17.5c0.1-0.2,0.2-0.3,0.3-0.4     c0.5-0.8,1-1.6,1.5-2.3c1.8-2.5,3.7-4.7,5.7-6.4c0.6-0.5,1.1-0.9,1.7-1.3c0.3-0.2,0.6-0.4,0.8-0.6c0.8-0.5,1.6-1,2.5-1.4     c2-0.9,4-1.3,6-1.3c2.1,0,4.1,0.5,6.1,1.4c9.4,4.2,17.4,18,22.1,36.9h6.2C294.9,27.8,281.2,2.5,265.1,2.5"/>
			<path class="st2" d="M217.4,32.2c1.2-2.7,2.5-5.2,3.8-7.4c-1.1-0.4-2.2-0.6-3.4-0.6c-2.1,0-4.1,0.7-6,1.9c-2.1,1.3-4.1,3.4-5.9,6     c-1.4,2.1-2.8,4.5-4,7.2c-0.3,0.6-0.6,1.3-0.8,2c-2.4,6-4.3,13.4-5.3,21.5h3.9c1.6-6.3,3.7-11.6,6.2-15.7     c1.5-2.4,3.1-4.4,4.8-5.9c0.4-0.3,0.7-0.6,1.1-0.8c1-0.7,1.9-1.2,2.9-1.5c0.5-1.4,1-2.8,1.5-4.1C216.7,33.9,217.1,33,217.4,32.2"/>
			<path class="st3" d="M304.6,54.3c3.4,2,5.4,4.4,5.4,6.9c0,7.8-18.7,14.3-41.7,14c-1.7,0-3.4-0.1-5.1-0.1c-2.8,0-7.9-0.2-13.7-0.9     c-7.5-0.8-14.4-2-18.8-4.1c-2.9-1.1-5.5-2.5-7.5-4.1v0c0,6.6,22.5,15,50.2,15c27.7,0,50.2-6.7,50.2-15     C323.6,61.3,316.2,57.1,304.6,54.3"/>
			<path class="st4" d="M239.8,14.4c-2.6,0-5.1,0.8-7.5,2.4c-2.6,1.7-5.1,4.2-7.4,7.5c-0.4,0.6-0.8,1.2-1.2,1.8     c-1.4,2.2-2.6,4.6-3.8,7.3c-0.4,0.8-0.7,1.6-1,2.5c-0.3,0.8-0.7,1.7-1,2.5c-2.5,7-4.5,15.3-5.7,24.4h4.9c2-7.8,4.6-14.5,7.8-19.6     c0.2-0.4,0.5-0.8,0.8-1.2c1.6-2.5,3.4-4.6,5.3-6.2c0.2-0.2,0.5-0.4,0.7-0.6c0.2-0.2,0.4-0.3,0.6-0.5c0.4-0.3,0.8-0.5,1.2-0.7     c0.7-2.1,1.4-4.2,2.2-6.1c0.4-1.1,0.9-2.2,1.3-3.2c1.6-3.7,3.4-7,5.3-9.9C241.5,14.5,240.7,14.4,239.8,14.4"/>
		</g>
		<g>
			<polygon class="st5" points="201,90.9 195.9,90.9 195.9,112.1 209.8,112.1 209.8,107.9 201,107.9    "/>
			<path class="st5" d="M218.9,90.9l-7.1,21.2h5.5l1.4-4.4h7.3l1.4,4.4h5.5l-7.1-21.2H218.9z M219.9,103.7l2.3-7.5h0.2l2.4,7.5     H219.9z"/>
			<path class="st5" d="M249.4,101.8c-0.5-0.5-1.2-1-2-1.4c-0.8-0.4-1.7-0.7-2.8-0.9l-1.8-0.4c-0.5-0.1-0.9-0.2-1.3-0.4     c-0.4-0.1-0.7-0.3-1-0.5c-0.3-0.2-0.5-0.4-0.6-0.6c-0.1-0.2-0.2-0.5-0.2-0.8c0-0.4,0.1-0.7,0.3-1c0.2-0.3,0.6-0.5,1-0.7     c0.4-0.2,1-0.3,1.7-0.3c1,0,1.8,0.2,2.3,0.6c0.5,0.4,0.8,1,0.9,1.8h4.9c0-1.3-0.4-2.5-1-3.5c-0.7-1-1.6-1.8-2.8-2.3     s-2.6-0.8-4.3-0.8c-1.6,0-3,0.3-4.3,0.8c-1.3,0.6-2.2,1.3-2.9,2.3c-0.7,1-1.1,2.1-1.1,3.4c0,1.6,0.5,2.9,1.6,3.8s2.5,1.6,4.3,2     l2.2,0.5c0.8,0.2,1.4,0.4,1.9,0.6c0.5,0.2,0.9,0.5,1.1,0.7c0.2,0.3,0.4,0.6,0.4,1c0,0.4-0.1,0.8-0.4,1.1     c-0.3,0.3-0.6,0.6-1.1,0.8c-0.5,0.2-1.1,0.3-1.8,0.3c-0.8,0-1.4-0.1-2-0.4s-1-0.6-1.3-1c-0.3-0.5-0.5-1-0.5-1.7h-4.9     c0,1.7,0.4,3,1.1,4.1c0.7,1.1,1.8,1.9,3.1,2.4c1.3,0.5,2.9,0.8,4.6,0.8c1.8,0,3.3-0.3,4.5-0.8c1.2-0.5,2.2-1.2,2.9-2.2     c0.7-1,1-2.1,1-3.4c0-0.8-0.2-1.6-0.4-2.3C250.4,103,249.9,102.4,249.4,101.8z"/>
			<path class="st5" d="M274.4,101.8c-0.7-0.4-1.5-0.7-2.4-0.7v-0.2c0.8-0.2,1.5-0.5,2.1-0.9c0.6-0.4,1.1-0.9,1.4-1.6     c0.3-0.6,0.5-1.3,0.5-2.2c0-1.1-0.3-2-0.8-2.8c-0.5-0.8-1.3-1.4-2.4-1.9c-1.1-0.4-2.4-0.7-4-0.7h-8.8v21.2h9.5     c1.6,0,2.9-0.3,4-0.8c1.1-0.5,1.9-1.2,2.5-2.1c0.6-0.9,0.9-1.9,0.9-3c0-1-0.2-1.9-0.7-2.6C275.7,102.8,275.1,102.2,274.4,101.8z      M265,95h2.9c0.9,0,1.5,0.2,2,0.6c0.5,0.4,0.8,1,0.8,1.7c0,0.5-0.1,0.9-0.4,1.3c-0.2,0.4-0.6,0.6-1,0.8c-0.4,0.2-0.9,0.3-1.5,0.3     H265V95z M270.7,107.3c-0.5,0.4-1.3,0.6-2.5,0.6H265v-5h3.3c0.7,0,1.2,0.1,1.7,0.3c0.5,0.2,0.8,0.5,1.1,0.9     c0.3,0.4,0.4,0.9,0.4,1.4C271.4,106.3,271.2,106.9,270.7,107.3z"/>
			<path class="st5" d="M285.5,90.9l-7.1,21.2h5.5l1.4-4.4h7.3l1.4,4.4h5.5l-7.1-21.2H285.5z M286.4,103.7l2.3-7.5h0.2l2.4,7.5     H286.4z"/>
			<polygon class="st5" points="313.6,104 313.4,104 308,90.9 301.7,90.9 301.7,112.1 306.7,112.1 306.7,99 306.8,99 311.9,111.9      315.1,111.9 320.2,99.1 320.4,99.1 320.4,112.1 325.3,112.1 325.3,90.9 319,90.9    "/>
			<path class="st5" d="M343,101.8c-0.7-0.4-1.5-0.7-2.4-0.7v-0.2c0.8-0.2,1.5-0.5,2.1-0.9c0.6-0.4,1.1-0.9,1.4-1.6     c0.3-0.6,0.5-1.3,0.5-2.2c0-1.1-0.3-2-0.8-2.8c-0.5-0.8-1.3-1.4-2.4-1.9c-1.1-0.4-2.4-0.7-4-0.7h-8.8v21.2h9.5     c1.6,0,2.9-0.3,4-0.8c1.1-0.5,1.9-1.2,2.5-2.1c0.6-0.9,0.9-1.9,0.9-3c0-1-0.2-1.9-0.7-2.6C344.3,102.8,343.7,102.2,343,101.8z      M333.7,95h2.9c0.9,0,1.5,0.2,2,0.6c0.5,0.4,0.8,1,0.8,1.7c0,0.5-0.1,0.9-0.4,1.3c-0.2,0.4-0.6,0.6-1,0.8     c-0.4,0.2-0.9,0.3-1.5,0.3h-2.8V95z M339.3,107.3c-0.5,0.4-1.3,0.6-2.5,0.6h-3.2v-5h3.3c0.7,0,1.2,0.1,1.7,0.3     c0.5,0.2,0.8,0.5,1.1,0.9c0.3,0.4,0.4,0.9,0.4,1.4C340.1,106.3,339.8,106.9,339.3,107.3z"/>
			<path class="st5" d="M354.1,90.9l-7.1,21.2h5.5l1.4-4.4h7.3l1.4,4.4h5.5l-7.1-21.2H354.1z M355,103.7l2.3-7.5h0.2l2.4,7.5H355z"/>
			<path class="st5" d="M385.8,103.6c-0.3-0.7-0.7-1.3-1.2-1.8c-0.5-0.5-1.2-1-2-1.4c-0.8-0.4-1.7-0.7-2.8-0.9l-1.8-0.4     c-0.5-0.1-0.9-0.2-1.3-0.4c-0.4-0.1-0.7-0.3-1-0.5c-0.3-0.2-0.5-0.4-0.6-0.6c-0.1-0.2-0.2-0.5-0.2-0.8c0-0.4,0.1-0.7,0.3-1     c0.2-0.3,0.6-0.5,1-0.7c0.4-0.2,1-0.3,1.7-0.3c1,0,1.8,0.2,2.3,0.6c0.5,0.4,0.8,1,0.9,1.8h4.9c0-1.3-0.4-2.5-1-3.5     c-0.7-1-1.6-1.8-2.8-2.3s-2.6-0.8-4.3-0.8c-1.6,0-3,0.3-4.3,0.8c-1.3,0.6-2.2,1.3-2.9,2.3c-0.7,1-1.1,2.1-1.1,3.4     c0,1.6,0.5,2.9,1.6,3.8s2.5,1.6,4.3,2l2.2,0.5c0.8,0.2,1.4,0.4,1.9,0.6c0.5,0.2,0.9,0.5,1.1,0.7c0.2,0.3,0.4,0.6,0.4,1     c0,0.4-0.1,0.8-0.4,1.1c-0.3,0.3-0.6,0.6-1.1,0.8c-0.5,0.2-1.1,0.3-1.8,0.3c-0.8,0-1.4-0.1-2-0.4s-1-0.6-1.3-1     c-0.3-0.5-0.5-1-0.5-1.7H369c0,1.7,0.4,3,1.1,4.1c0.7,1.1,1.8,1.9,3.1,2.4c1.3,0.5,2.9,0.8,4.6,0.8c1.8,0,3.3-0.3,4.5-0.8     c1.2-0.5,2.2-1.2,2.9-2.2c0.7-1,1-2.1,1-3.4C386.3,105.1,386.1,104.3,385.8,103.6z"/>
		</g>
	</g>
</g>
<g id="OBJECTS">
</g>
</svg>